<?xml version="1.0" encoding="utf-8"?>
<!-- Generator: Adobe Illustrator 27.7.0, SVG Export Plug-In . SVG Version: 6.00 Build 0)  -->
<svg version="1.1" id="Layer_1" xmlns="http://www.w3.org/2000/svg" xmlns:xlink="http://www.w3.org/1999/xlink" x="0px" y="0px"
	 viewBox="0 0 1123.53 335.45" style="enable-background:new 0 0 1123.53 335.45;" xml:space="preserve">
<style type="text/css">
	.st0{fill:#E6EEF9;}
	.st1{fill:#CCDC29;}
</style>
<g>
	<g>
		<g>
			<path class="st0" d="M497.88,0.09h-110.3c-29.1,0.9-51.9,25.2-51.9,53.7h31.5c0-11.7,9.6-21.6,21-22.2h109.7
				c11.16,0,20.2,9.04,20.2,20.2v110.2c0,11.16-9.04,20.2-20.2,20.2h-109.4c-11.7-0.6-21.3-10.5-21.3-22.2v-67.5h-31.5v67.5
				c0,28.5,22.8,52.5,51.9,53.7h110.3c28.55,0,51.7-23.15,51.7-51.7V51.79C549.59,23.24,526.44,0.09,497.88,0.09z"/>
		</g>
		<g>
			<path class="st0" d="M734.79,0.09h-160.2v31.5h162.2c11.16,0,20.2,9.04,20.2,20.2v110.2c0,11.16-9.04,20.2-20.2,20.2h-130.7
				v-89.7h-31.5v121.2h160.2c29.4,0,53.7-24,53.7-53.7V53.79C788.49,24.09,764.19,0.09,734.79,0.09z"/>
		</g>
		<g>
			<path class="st0" d="M1024.45,182.2h-180.4v-58.2h148.9c1.1,0,2-0.9,2-2v-29.5h-182.4v121.2h213.9v-29.5
				C1026.45,183.09,1025.56,182.2,1024.45,182.2z"/>
		</g>
		<g>
			<path class="st0" d="M1024.75,0.09h-212.2v29.5c0,1.1,0.9,2,2,2h212.2V2.09C1026.75,0.99,1025.86,0.09,1024.75,0.09z"/>
		</g>
		<g>
			<path class="st0" d="M256.21,182.59h-108.2c-11.27,0-20.5-9.22-20.5-20.5v-69.5h-31.5v69.5c0,28.55,23.15,51.7,51.7,51.7h108.5
				c29.1,0,53.4-23.4,53.4-52.8v-0.6h-31.2C278.41,172.69,268.51,182.59,256.21,182.59z"/>
		</g>
		<g>
			<path class="st0" d="M258.98,0h-110.3c-29.1,0.9-51.9,25.2-51.9,53.7h31.5c0-11.7,9.6-21.6,21-22.2h107.7
				c12.26,0,22.2,9.94,22.2,22.2l31.5,0v-2C310.68,23.15,287.54,0,258.98,0z"/>
		</g>
	</g>
</g>
<polygon class="st1" points="362.17,264.04 352.17,264.04 352.17,335.45 361.84,335.45 362.17,335.45 388.66,335.45 388.66,325.45 
	362.17,325.45 "/>
<rect x="488.66" y="264.04" class="st1" width="10" height="71.41"/>
<path class="st1" d="M618.66,264.04h-10h-7.43h-2.57v71.41h10v-61.41h5c2.76,0,5,2.24,5,5v56.41h10v-61.41
	C628.66,268.52,624.18,264.04,618.66,264.04z"/>
<polygon class="st1" points="728.66,264.04 728.66,335.45 738.66,335.45 765.2,335.45 765.2,325.45 738.66,325.45 738.66,295.9 
	761.46,295.9 761.46,285.9 738.66,285.9 738.66,274.04 765.47,274.04 765.47,264.04 738.66,264.04 "/>
<g>
	<polygon class="st1" points="28.57,100.73 7.5,100.73 0,106.84 46.88,144.82 46.88,127.79 21.08,106.84 	"/>
	<polygon class="st1" points="40.34,91.26 46.88,85.95 46.88,68.97 19.28,91.26 	"/>
</g>
<g>
	<polygon class="st1" points="1116.03,100.73 1094.97,100.73 1102.45,106.84 1076.66,127.79 1076.66,144.82 1123.53,106.84 	"/>
	<polygon class="st1" points="1104.26,91.26 1076.66,68.97 1076.66,85.95 1083.19,91.26 	"/>
</g>
</svg>
